HIERARCHY
ROOT Hips
{
	OFFSET 0.00000 0.00000 0.00000
	CHANNELS 6 Xposition Yposition Zposition Zrotation Yrotation Xrotation 
	JOINT LHipJoint
	{
		OFFSET 0 0 0
		CHANNELS 3 Zrotation Yrotation Xrotation
		JOINT LeftUpLeg
		{
			OFFSET 1.48416 -1.82041 0.59464
			CHANNELS 3 Zrotation Yrotation Xrotation
			JOINT LeftLeg
			{
				OFFSET 2.43280 -6.68407 0.00000
				CHANNELS 3 Zrotation Yrotation Xrotation
				JOINT LeftFoot
				{
					OFFSET 2.68325 -7.37216 0.00000
					CHANNELS 3 Zrotation Yrotation Xrotation
					JOINT LeftToeBase
					{
						OFFSET 0.15365 -0.42214 1.91990
						CHANNELS 3 Zrotation Yrotation Xrotation
						End Site
						{
							OFFSET 0.00000 -0.00000 0.99320
						}
					}
				}
			}
		}
	}
	JOINT RHipJoint
	{
		OFFSET 0 0 0
		CHANNELS 3 Zrotation Yrotation Xrotation
		JOINT RightUpLeg
		{
			OFFSET -1.70852 -1.82040 0.59464
			CHANNELS 3 Zrotation Yrotation Xrotation
			JOINT RightLeg
			{
				OFFSET -2.50396 -6.87957 0.00000
				CHANNELS 3 Zrotation Yrotation Xrotation
				JOINT RightFoot
				{
					OFFSET -2.67204 -7.34139 0.00000
					CHANNELS 3 Zrotation Yrotation Xrotation
					JOINT RightToeBase
					{
						OFFSET -0.17346 -0.47657 2.02009
						CHANNELS 3 Zrotation Yrotation Xrotation
						End Site
						{
							OFFSET -0.00000 -0.00000 1.04609
						}
					}
				}
			}
		}
	}
	JOINT LowerBack
	{
		OFFSET 0 0 0
		CHANNELS 3 Zrotation Yrotation Xrotation
		JOINT Spine
		{
			OFFSET -0.01022 1.99636 -0.30653
			CHANNELS 3 Zrotation Yrotation Xrotation
			JOINT Spine1
			{
				OFFSET -0.01683 2.01212 0.04808
				CHANNELS 3 Zrotation Yrotation Xrotation
				JOINT Neck
				{
					OFFSET 0 0 0
					CHANNELS 3 Zrotation Yrotation Xrotation
					JOINT Neck1
					{
						OFFSET -0.03080 1.91178 0.03911
						CHANNELS 3 Zrotation Yrotation Xrotation
						JOINT Head
						{
							OFFSET 0.10605 1.89839 -0.23433
							CHANNELS 3 Zrotation Yrotation Xrotation
							End Site
							{
								OFFSET 0.03474 1.92469 -0.08609
							}
						}
					}
				}
				JOINT LeftShoulder
				{
					OFFSET 0 0 0
					CHANNELS 3 Zrotation Yrotation Xrotation
					JOINT LeftArm
					{
						OFFSET 3.78977 1.27972 -0.24661
						CHANNELS 3 Zrotation Yrotation Xrotation
						JOINT LeftForeArm
						{
							OFFSET 5.64147 -0.00000 -0.00000
							CHANNELS 3 Zrotation Yrotation Xrotation
							JOINT LeftHand
							{
								OFFSET 2.86444 -0.00000 -0.00000
								CHANNELS 3 Zrotation Yrotation Xrotation
								JOINT LeftFingerBase
								{
									OFFSET 0 0 0
									CHANNELS 3 Zrotation Yrotation Xrotation
									JOINT LeftHandIndex1
									{
										OFFSET 0.72212 -0.00000 -0.00000
										CHANNELS 3 Zrotation Yrotation Xrotation
										End Site
										{
											OFFSET 0.58219 -0.00000 -0.00000
										}
									}
								}
								JOINT LThumb
								{
									OFFSET 0 0 0
									CHANNELS 3 Zrotation Yrotation Xrotation
									End Site
									{
										OFFSET 0.59108 -0.00000 0.59108
									}
								}
							}
						}
					}
				}
				JOINT RightShoulder
				{
					OFFSET 0 0 0
					CHANNELS 3 Zrotation Yrotation Xrotation
					JOINT RightArm
					{
						OFFSET -3.41176 1.18605 -0.57927
						CHANNELS 3 Zrotation Yrotation Xrotation
						JOINT RightForeArm
						{
							OFFSET -5.44729 -0.00000 -0.00000
							CHANNELS 3 Zrotation Yrotation Xrotation
							JOINT RightHand
							{
								OFFSET -3.08821 -0.00000 -0.00000
								CHANNELS 3 Zrotation Yrotation Xrotation
								JOINT RightFingerBase
								{
									OFFSET 0 0 0
									CHANNELS 3 Zrotation Yrotation Xrotation
									JOINT RightHandIndex1
									{
										OFFSET -0.82105 -0.00000 -0.00000
										CHANNELS 3 Zrotation Yrotation Xrotation
										End Site
										{
											OFFSET -0.66195 -0.00000 -0.00000
										}
									}
								}
								JOINT RThumb
								{
									OFFSET 0 0 0
									CHANNELS 3 Zrotation Yrotation Xrotation
									End Site
									{
										OFFSET -0.67206 -0.00000 0.67206
									}
								}
							}
						}
					}
				}
			}
		}
	}
}
MOTION
Frames: 10
Frame Time: .0083333
3.3467 17.7733 0.4037 0 0 0 0 0 0 -21 0 0 0 0 0 0 0 0 0 0 0 0 0 0 21 0 0 0 0 0 0 0 0 0 0 0 0 0 0 0 0 0 0 0 0 0 0 -16 0 0 21 0 0 11 0 0 0 -8 0 0 0 0 0 0 0 0 0 0 0 0 0 0 0 0 0 0 0 0 8 0 0 0 0 0 0 0 0 0 0 0 0 0 0 0 0 0
3.3467 17.7733 0.4037 -33.9088 88.8017 -33.5384 0.0000 0.0000 0.0000 0.0000 0.0000 0.0000 0.0000 0.0000 0.0000 0.0000 0.0000 0.0000 0.0000 0.0000 0.0000 0.0000 0.0000 0.0000 19.6201 1.1996 0.7551 -0.5791 -4.8728 13.5462 -0.7539 4.3622 -15.5120 -0.0997 2.0363 -5.6060 3.1705 0.2590 1.4996 -0.6977 0.3903 0.6100 -2.4998 0.2015 -0.1891 -5.6251 -5.3166 -1.8733 8.5268 -7.1382 1.8857 3.6119 -3.4910 1.5039 -0.0000 -0.0000 0.0000 -83.5409 3.1918 36.4785 15.2010 -24.4254 -3.3086 -0.0000 0.0000 -30.2443 8.8859 9.3100 1.4489 -7.1250 0.0000 -0.0000 -15.5669 38.9375 2.3935 -0.0000 -0.0000 0.0000 88.2548 -4.9633 19.6551 -15.3730 24.6631 -3.3801 0.0000 0.0000 14.0982 -3.8685 10.0165 -0.6738 7.1250 -0.0000 -0.0000 16.3392 -20.1137 10.1394
3.3466 17.7744 0.4055 -35.3268 88.7818 -34.9352 0.0000 0.0000 0.0000 0.0000 0.0000 0.0000 0.0000 0.0000 0.0000 0.0000 0.0000 0.0000 0.0000 0.0000 0.0000 0.0000 0.0000 0.0000 19.6758 1.2776 0.7956 -0.5730 -4.8475 13.4742 -0.7533 4.2581 -15.5127 -0.1007 2.0467 -5.6346 3.1905 0.2503 1.4776 -0.6959 0.3784 0.5983 -2.5090 0.1954 -0.1895 -5.5828 -5.3117 -1.8493 8.5106 -7.1321 1.8689 3.5992 -3.4884 1.4909 0.0000 -0.0000 0.0000 -83.5296 3.2046 36.4213 15.2168 -24.4473 -3.3152 -0.0000 0.0000 -30.2127 8.8421 9.3537 1.4483 -7.1250 0.0000 -0.0000 -15.6142 38.9767 2.3857 0.0000 -0.0000 0.0000 88.2559 -5.0004 19.8203 -15.4155 24.7217 -3.3978 0.0000 0.0000 13.9580 -3.8538 9.9072 -0.6640 7.1250 -0.0000 -0.0000 16.3597 -20.2192 10.1126
3.3460 17.7747 0.4068 -36.6040 88.7573 -36.2007 0.0000 0.0000 0.0000 0.0000 0.0000 0.0000 0.0000 0.0000 0.0000 0.0000 0.0000 0.0000 0.0000 0.0000 0.0000 0.0000 0.0000 0.0000 19.7252 1.3387 0.7956 -0.5720 -4.8437 13.4632 -0.7549 4.2127 -15.5328 -0.1119 2.1566 -5.9387 3.2117 0.2608 1.4821 -0.6848 0.3929 0.5878 -2.5097 0.2023 -0.2017 -5.6003 -5.3272 -1.8071 8.5234 -7.1526 1.8371 3.6076 -3.4999 1.4760 0.0000 0.0000 0.0000 -83.5437 3.1964 36.4402 15.2226 -24.4553 -3.3176 -0.0000 0.0000 -30.2441 8.9552 9.3651 1.4689 -7.1250 0.0000 -0.0000 -15.5219 38.9964 2.3630 0.0000 0.0000 0.0000 88.2539 -4.9814 19.8360 -15.4108 24.7153 -3.3959 0.0000 0.0000 13.9000 -3.8726 9.9237 -0.6684 7.1250 -0.0000 -0.0000 16.3451 -20.2028 10.1091
3.3466 17.7749 0.4066 -36.3475 88.7505 -35.9338 0.0000 0.0000 0.0000 0.0000 0.0000 0.0000 0.0000 0.0000 0.0000 0.0000 0.0000 0.0000 0.0000 0.0000 0.0000 0.0000 0.0000 0.0000 19.7190 1.3468 0.7893 -0.5713 -4.8408 13.4549 -0.7534 4.2410 -15.5156 -0.1046 2.0856 -5.7423 3.2138 0.2631 1.4629 -0.6772 0.3953 0.5871 -2.5031 0.2037 -0.1915 -5.6386 -5.3242 -1.8005 8.5235 -7.1474 1.8256 3.6154 -3.4981 1.4723 0.0000 -0.0000 0.0000 -83.5733 3.1761 36.4351 15.2018 -24.4265 -3.3089 -0.0000 0.0000 -30.2124 8.9429 9.3464 1.4639 -7.1250 0.0000 -0.0000 -15.5278 38.9772 2.3715 0.0000 -0.0000 0.0000 88.2226 -4.9606 19.8667 -15.3993 24.6994 -3.3910 0.0000 0.0000 13.8115 -3.8544 9.9745 -0.6686 7.1250 -0.0000 -0.0000 16.3529 -20.1544 10.1330
3.3463 17.7741 0.4064 -34.7673 88.7663 -34.3462 0.0000 0.0000 0.0000 0.0000 0.0000 0.0000 0.0000 0.0000 0.0000 0.0000 0.0000 0.0000 0.0000 0.0000 0.0000 0.0000 0.0000 0.0000 19.6801 1.3477 0.7711 -0.5716 -4.8418 13.4578 -0.7513 4.2082 -15.4950 -0.1022 2.0619 -5.6768 3.1771 0.2677 1.4501 -0.6958 0.4005 0.5806 -2.5016 0.2061 -0.1908 -5.5929 -5.3179 -1.8210 8.4932 -7.1411 1.8719 3.5955 -3.4939 1.4871 0.0000 -0.0000 0.0000 -83.5528 3.2047 36.4847 15.2383 -24.4770 -3.3240 -0.0000 0.0000 -30.2754 8.9565 9.3806 1.4715 -7.1250 0.0000 -0.0000 -15.5246 39.0116 2.3574 0.0000 -0.0000 0.0000 88.2426 -4.9372 19.7602 -15.3608 24.6463 -3.3750 0.0000 0.0000 13.9159 -4.0181 10.1478 -0.7091 7.1250 -0.0000 -0.0000 16.2235 -19.9839 10.1110
3.3466 17.7750 0.4071 -33.5444 88.7939 -33.1058 0.0000 0.0000 0.0000 0.0000 0.0000 0.0000 0.0000 0.0000 0.0000 0.0000 0.0000 0.0000 0.0000 0.0000 0.0000 0.0000 0.0000 0.0000 19.6382 1.3009 0.7426 -0.5714 -4.8411 13.4560 -0.7503 4.2343 -15.4825 -0.1075 2.1143 -5.8218 3.1235 0.2641 1.4291 -0.7000 0.3943 0.5764 -2.4755 0.2030 -0.1841 -5.5971 -5.3167 -1.8262 8.4787 -7.1395 1.8818 3.5911 -3.4932 1.4906 0.0000 -0.0000 0.0000 -83.5852 3.1691 36.3825 15.2000 -24.4240 -3.3082 -0.0000 0.0000 -30.1516 8.8901 9.3462 1.4551 -7.1250 0.0000 -0.0000 -15.5721 38.9730 2.3803 0.0000 -0.0000 0.0000 88.2359 -4.9085 19.7179 -15.3467 24.6269 -3.3691 0.0000 0.0000 14.0058 -4.0872 10.2241 -0.7267 7.1250 -0.0000 -0.0000 16.1687 -19.9090 10.1024
3.3469 17.7759 0.4089 -35.7027 88.7304 -35.2491 0.0000 0.0000 0.0000 0.0000 0.0000 0.0000 0.0000 0.0000 0.0000 0.0000 0.0000 0.0000 0.0000 0.0000 0.0000 0.0000 0.0000 0.0000 19.7367 1.3492 0.7506 -0.5709 -4.8391 13.4502 -0.7541 4.1910 -15.5268 -0.1139 2.1763 -5.9932 3.1864 0.2688 1.4269 -0.6870 0.4015 0.5590 -2.4977 0.2061 -0.1999 -5.5625 -5.3075 -1.7714 8.4575 -7.1275 1.8480 3.5792 -3.4888 1.4662 0.0000 0.0000 0.0000 -83.5903 3.1465 36.2686 15.1565 -24.3636 -3.2902 -0.0000 0.0000 -30.0976 8.8464 9.3030 1.4412 -7.1250 0.0000 -0.0000 -15.5983 38.9276 2.4025 0.0000 0.0000 0.0000 88.2684 -4.8898 19.6702 -15.3381 24.6150 -3.3655 0.0000 0.0000 14.0482 -4.0003 10.2661 -0.7141 7.1250 -0.0000 -0.0000 16.2248 -19.8706 10.1550
3.3476 17.7770 0.4107 -36.5470 88.6943 -36.0812 0.0000 0.0000 0.0000 0.0000 0.0000 0.0000 0.0000 0.0000 0.0000 0.0000 0.0000 0.0000 0.0000 0.0000 0.0000 0.0000 0.0000 0.0000 19.7906 1.4001 0.7762 -0.5687 -4.8298 13.4237 -0.7572 4.1743 -15.5608 -0.1140 2.1768 -5.9945 3.2036 0.2769 1.4326 -0.6752 0.4128 0.5521 -2.4954 0.2115 -0.2094 -5.5434 -5.3072 -1.8143 8.4262 -7.1270 1.8791 3.5633 -3.4876 1.4815 0.0000 -0.0000 0.0000 -83.5732 3.1375 36.3079 15.1732 -24.3869 -3.2971 -0.0000 0.0000 -30.1674 8.8700 9.3367 1.4503 -7.1250 0.0000 -0.0000 -15.5867 38.9622 2.3869 0.0000 -0.0000 0.0000 88.2850 -4.8608 19.6006 -15.3439 24.6231 -3.3679 0.0000 0.0000 14.1386 -4.1741 10.4259 -0.7567 7.1250 -0.0000 -0.0000 16.0905 -19.7124 10.1234
3.3480 17.7760 0.4125 -36.9552 88.7073 -36.4999 0.0000 0.0000 0.0000 0.0000 0.0000 0.0000 0.0000 0.0000 0.0000 0.0000 0.0000 0.0000 0.0000 0.0000 0.0000 0.0000 0.0000 0.0000 19.8064 1.4243 0.8333 -0.5652 -4.8150 13.3816 -0.7567 4.1267 -15.5595 -0.1055 2.0947 -5.7676 3.1850 0.2737 1.4432 -0.6730 0.4086 0.5550 -2.4828 0.2093 -0.2128 -5.5306 -5.3062 -1.8660 8.3929 -7.1267 1.9389 3.5476 -3.4861 1.5081 -0.0000 0.0000 0.0000 -83.5566 3.1388 36.3347 15.1860 -24.4046 -3.3024 -0.0000 0.0000 -30.2046 8.8250 9.3372 1.4429 -7.1250 0.0000 -0.0000 -15.6245 38.9593 2.3942 -0.0000 0.0000 0.0000 88.2671 -4.8494 19.6720 -15.3700 24.6590 -3.3788 0.0000 0.0000 14.1051 -4.3496 10.4611 -0.7912 7.1250 -0.0000 -0.0000 15.9664 -19.6741 10.0532
